# xmcd
#
# Track frame offsets:
#	150
#	10777
#	20193
#	31533
#	43498
#	53005
#	63558
#	73284
#	82775
#	95260
#	107752
#	118324
#	128066
#	137804
#	153022
#	163369
#	173873
#	187041
#	199774
#	212041
#	221986
#	232460
#	243826
#	253615
#	263202
#	274462
#	284094
#	295219
#	305862
#	316236
#	327884
#	337990
#
# Disc length: 4656 seconds
#
# Revision: 0
# Processed by: cddbd v1.5.2PL0 Copyright (c) Steve Scherf et al.
# Submitted via: audiograbber 1.83.01
#
DISCID=f9122e20
DTITLE=Faron Young - The Classic Years 1952-1962 - Disc 2
DYEAR=1900
DGENRE=Country
TTITLE0=Live Fast, Love Hard, Die Young
TTITLE1=Go Back, You Fool
TTITLE2=All Right
TTITLE3=For The Love of a Woman Like You
TTITLE4=It's a Great Life
TTITLE5=Better Things Than These
TTITLE6=I've Got Five Dollars and It's Saturday Night
TTITLE7=Turn Her Down
TTITLE8=You're Still Mine
TTITLE9=Sweet Dreams
TTITLE10=Until I Met You
TTITLE11=I'm Gonna Live Some Before I Die
TTITLE12=Candy Kisses
TTITLE13=Have I Told You Lately That I Love You
TTITLE14=I'll Be Satisfied With Love
TTITLE15=I Can't Help It
TTITLE16=Your Cheatin' Heart
TTITLE17=I'll Be Yours
TTITLE18=Sweethearts or Strangers
TTITLE19=Shame on You
TTITLE20=Worried Mind
TTITLE21=I Miss You Already
TTITLE22=I'm a Poor Boy
TTITLE23=You Call Everybody Darlin'
TTITLE24=You Are My Sunshine
TTITLE25=I'm Gonna Live Some Before I Die
TTITLE26=Moonlight Mountain
TTITLE27=Anything Your Heart Desires
TTITLE28=Vacation's Over
TTITLE29=The Shrine of St. Cecilia
TTITLE30=Love Has Finally Come My Way
TTITLE31=The Face of Love
EXTD=
EXTT0=
EXTT1=
EXTT2=
EXTT3=
EXTT4=
EXTT5=
EXTT6=
EXTT7=
EXTT8=
EXTT9=
EXTT10=
EXTT11=
EXTT12=
EXTT13=
EXTT14=
EXTT15=
EXTT16=
EXTT17=
EXTT18=
EXTT19=
EXTT20=
EXTT21=
EXTT22=
EXTT23=
EXTT24=
EXTT25=
EXTT26=
EXTT27=
EXTT28=
EXTT29=
EXTT30=
EXTT31=
PLAYORDER=
